<?xml version="1.0" standalone="no"?>
<!DOCTYPE svg PUBLIC "-//W3C//DTD SVG 1.1//EN" "http://www.w3.org/Graphics/SVG/1.1/DTD/svg11.dtd" >
<svg xmlns="http://www.w3.org/2000/svg">
<defs>
  <font id="Iconify Explorer Font" horiz-adv-x="1000">
    <font-face font-family="Iconify Explorer Font"
      units-per-em="1000" ascent="1000"
      descent="0" />
    <missing-glyph horiz-adv-x="0" />
    <glyph glyph-name="ri:add-circle-fill"
      unicode="&#xE001;"
      horiz-adv-x="1000" d="M500 83.3333333333334C269.875 83.3333333333334 83.3333333333333 269.8750000000001 83.3333333333333 500S269.875 916.6666666666666 500 916.6666666666666S916.6666666666666 730.125 916.6666666666666 500.0000000000001S730.1249999999999 83.3333333333335 500 83.3333333333335zM458.3333333333333 541.6666666666667H291.6666666666667V458.3333333333334H458.3333333333333V291.6666666666668H541.6666666666666V458.3333333333334H708.3333333333333V541.6666666666667H541.6666666666666V708.3333333333334H458.3333333333333V541.6666666666667z" />
    <glyph glyph-name="ri:add-circle-line"
      unicode="&#xE002;"
      horiz-adv-x="1000" d="M458.3333333333333 541.6666666666667V708.3333333333334H541.6666666666666V541.6666666666667H708.3333333333333V458.3333333333334H541.6666666666666V291.6666666666668H458.3333333333333V458.3333333333334H291.6666666666667V541.6666666666667H458.3333333333333zM500 83.3333333333334C269.875 83.3333333333334 83.3333333333333 269.8750000000001 83.3333333333333 500S269.875 916.6666666666666 500 916.6666666666666S916.6666666666666 730.125 916.6666666666666 500.0000000000001S730.1249999999999 83.3333333333335 500 83.3333333333335zM500 166.6666666666668A333.3333333333333 333.3333333333333 0 1 1 500 833.3333333333334A333.3333333333333 333.3333333333333 0 0 1 500 166.6666666666668z" />
    <glyph glyph-name="ri:add-line"
      unicode="&#xE003;"
      horiz-adv-x="1000" d="M458.3333333333333 541.6666666666667V791.6666666666667H541.6666666666666V541.6666666666667H791.6666666666666V458.3333333333334H541.6666666666666V208.3333333333334H458.3333333333333V458.3333333333334H208.3333333333333V541.6666666666667z" />
    <glyph glyph-name="ri:check-line"
      unicode="&#xE004;"
      horiz-adv-x="1000" d="M416.6666666666667 367.8333333333334L799.6666666666666 750.875L858.625 691.9583333333333L416.6666666666667 250L151.5 515.1666666666667L210.4166666666666 574.0833333333333z" />
    <glyph glyph-name="ri:checkbox-circle-fill"
      unicode="&#xE005;"
      horiz-adv-x="1000" d="M500 83.3333333333334C269.875 83.3333333333334 83.3333333333333 269.8750000000001 83.3333333333333 500S269.875 916.6666666666666 500 916.6666666666666S916.6666666666666 730.125 916.6666666666666 500.0000000000001S730.1249999999999 83.3333333333335 500 83.3333333333335zM458.4583333333334 333.3333333333334L753.0416666666666 627.9583333333333L694.125 686.875L458.4583333333334 451.1666666666667L340.5833333333334 569.0416666666667L281.6666666666667 510.1250000000001L458.4583333333333 333.3333333333334z" />
    <glyph glyph-name="ri:close-line"
      unicode="&#xE006;"
      horiz-adv-x="1000" d="M500 558.9166666666667L706.25 765.1666666666666L765.1666666666666 706.25L558.9166666666667 500L765.1666666666667 293.75L706.2500000000001 234.8333333333334L500.0000000000002 441.0833333333333L293.7500000000003 234.8333333333333L234.8333333333336 293.7499999999999L441.0833333333336 499.9999999999998L234.8333333333336 706.2499999999998L293.75 765.1666666666666z" />
    <glyph glyph-name="ri:code-box-line"
      unicode="&#xE007;"
      horiz-adv-x="1000" d="M125 875H875A41.6666666666667 41.6666666666667 0 0 0 916.6666666666666 833.3333333333334V166.6666666666668A41.6666666666667 41.6666666666667 0 0 0 875 125.0000000000001H125A41.6666666666667 41.6666666666667 0 0 0 83.3333333333333 166.6666666666668V833.3333333333334A41.6666666666667 41.6666666666667 0 0 0 125 875zM166.6666666666667 791.6666666666667V208.3333333333335H833.3333333333333V791.6666666666667H166.6666666666667zM833.3333333333333 500.0000000000001L686 352.6666666666667L627.0833333333334 411.625L715.5 500L627.0833333333334 588.375L686 647.3333333333334L833.3333333333333 500zM284.5 500L372.9166666666667 411.625L314 352.6666666666667L166.6666666666667 500L314 647.3333333333333L372.9166666666667 588.3333333333333L284.5 500zM468.5 291.6666666666668H379.8333333333333L531.5 708.3333333333334H620.1666666666666L468.5 291.6666666666668z" />
    <glyph glyph-name="ri:code-s-slash-fill"
      unicode="&#xE008;"
      horiz-adv-x="1000" d="M1000 500L764.2916666666667 264.2916666666668L705.3750000000001 323.2083333333334L882.1666666666666 500L705.375 676.7916666666667L764.2916666666666 735.7083333333334L1000 500zM117.8333333333333 500L294.625 323.2083333333334L235.7083333333334 264.2916666666668L0 500L235.7083333333333 735.7083333333333L294.5833333333333 676.7916666666667L117.8333333333333 500zM407.8333333333333 125H319.1666666666667L592.1666666666666 875H680.8333333333333L407.8333333333333 125z" />
    <glyph glyph-name="ri:download-2-line"
      unicode="&#xE009;"
      horiz-adv-x="1000" d="M541.6666666666666 583.3333333333334H750L500 333.3333333333334L250 583.3333333333334H458.3333333333333V875H541.6666666666666V583.3333333333334zM166.6666666666666 208.3333333333334H833.3333333333333V500H916.6666666666666V166.6666666666668A41.6666666666667 41.6666666666667 0 0 0 875 125.0000000000001H125A41.6666666666667 41.6666666666667 0 0 0 83.3333333333333 166.6666666666668V500.0000000000001H166.6666666666667V208.3333333333335z" />
    <glyph glyph-name="ri:edit-2-fill"
      unicode="&#xE00A;"
      horiz-adv-x="1000" d="M385.125 208.3333333333334H875V125H125V301.7916666666667L537.5 714.2916666666667L714.2499999999999 537.4583333333334L385.0833333333333 208.3333333333334zM596.375 773.1666666666666L684.7916666666667 861.5833333333333A41.6666666666667 41.6666666666667 0 0 0 743.7083333333333 861.5833333333333L861.5833333333334 743.7083333333333A41.6666666666667 41.6666666666667 0 0 0 861.5833333333334 684.7916666666666L773.1666666666666 596.4166666666666L596.4166666666667 773.1666666666666z" />
    <glyph glyph-name="ri:error-warning-fill"
      unicode="&#xE00B;"
      horiz-adv-x="1000" d="M500 83.3333333333334C269.875 83.3333333333334 83.3333333333333 269.8750000000001 83.3333333333333 500S269.875 916.6666666666666 500 916.6666666666666S916.6666666666666 730.125 916.6666666666666 500.0000000000001S730.1249999999999 83.3333333333335 500 83.3333333333335zM458.3333333333333 375V291.6666666666667H541.6666666666666V375H458.3333333333333zM458.3333333333333 708.3333333333333V458.3333333333333H541.6666666666666V708.3333333333334H458.3333333333333z" />
    <glyph glyph-name="ri:error-warning-line"
      unicode="&#xE00C;"
      horiz-adv-x="1000" d="M500 83.3333333333334C269.875 83.3333333333334 83.3333333333333 269.8750000000001 83.3333333333333 500S269.875 916.6666666666666 500 916.6666666666666S916.6666666666666 730.125 916.6666666666666 500.0000000000001S730.1249999999999 83.3333333333335 500 83.3333333333335zM500 166.6666666666668A333.3333333333333 333.3333333333333 0 1 1 500 833.3333333333334A333.3333333333333 333.3333333333333 0 0 1 500 166.6666666666668zM458.3333333333333 375H541.6666666666666V291.6666666666667H458.3333333333333V375zM458.3333333333333 708.3333333333333H541.6666666666666V458.3333333333333H458.3333333333333V708.3333333333334z" />
    <glyph glyph-name="ri:file-copy-fill"
      unicode="&#xE00D;"
      horiz-adv-x="1000" d="M291.6666666666667 750V875A41.6666666666667 41.6666666666667 0 0 0 333.3333333333333 916.6666666666666H833.3333333333333A41.6666666666667 41.6666666666667 0 0 0 874.9999999999999 875V291.6666666666668A41.6666666666667 41.6666666666667 0 0 0 833.3333333333333 250.0000000000001H708.3333333333333V125.0000000000001C708.3333333333333 102.0000000000001 689.5833333333333 83.3333333333335 666.3749999999999 83.3333333333335H166.9583333333333A41.7083333333333 41.7083333333333 0 0 0 125 125L125.125 708.3333333333333C125.125 731.3333333333333 143.875 750 167.0833333333333 750H291.6666666666667zM375 750H708.3333333333333V333.3333333333334H791.6666666666666V833.3333333333334H375V750z" />
    <glyph glyph-name="ri:file-copy-line"
      unicode="&#xE00E;"
      horiz-adv-x="1000" d="M291.6666666666667 750V875A41.6666666666667 41.6666666666667 0 0 0 333.3333333333333 916.6666666666666H833.3333333333333A41.6666666666667 41.6666666666667 0 0 0 874.9999999999999 875V291.6666666666668A41.6666666666667 41.6666666666667 0 0 0 833.3333333333333 250.0000000000001H708.3333333333333V125.0000000000001C708.3333333333333 102.0000000000001 689.5833333333333 83.3333333333335 666.3749999999999 83.3333333333335H166.9583333333333A41.7083333333333 41.7083333333333 0 0 0 125 125L125.125 708.3333333333333C125.125 731.3333333333333 143.875 750 167.0833333333333 750H291.6666666666667zM208.4583333333334 666.6666666666667L208.3333333333333 166.6666666666668H625V666.6666666666667H208.4583333333334zM375 750H708.3333333333333V333.3333333333334H791.6666666666666V833.3333333333334H375V750z" />
    <glyph glyph-name="ri:loader-2-fill"
      unicode="&#xE00F;"
      horiz-adv-x="1000" d="M500 916.6666666666666A41.6666666666667 41.6666666666667 0 0 0 541.6666666666666 875V750A41.6666666666667 41.6666666666667 0 0 0 458.3333333333333 750V875A41.6666666666667 41.6666666666667 0 0 0 500 916.6666666666666zM500 291.6666666666667A41.6666666666667 41.6666666666667 0 0 0 541.6666666666666 250V125A41.6666666666667 41.6666666666667 0 0 0 458.3333333333333 125V250A41.6666666666667 41.6666666666667 0 0 0 500 291.6666666666667zM916.6666666666666 500A41.6666666666667 41.6666666666667 0 0 0 875 458.3333333333334H750A41.6666666666667 41.6666666666667 0 0 0 750 541.6666666666667H875A41.6666666666667 41.6666666666667 0 0 0 916.6666666666666 500zM291.6666666666667 500A41.6666666666667 41.6666666666667 0 0 0 250 458.3333333333334H125A41.6666666666667 41.6666666666667 0 0 0 125 541.6666666666667H250A41.6666666666667 41.6666666666667 0 0 0 291.6666666666667 500zM794.6249999999999 205.3750000000001A41.6666666666667 41.6666666666667 0 0 0 735.7083333333333 205.3750000000001L647.3333333333334 293.7500000000001A41.6666666666667 41.6666666666667 0 0 0 706.2499999999999 352.6666666666667L794.6249999999999 264.3333333333333A41.6666666666667 41.6666666666667 0 0 0 794.6249999999999 205.375zM352.6666666666667 647.3333333333333A41.6666666666667 41.6666666666667 0 0 0 293.75 647.3333333333333L205.4166666666667 735.6666666666666A41.6666666666667 41.6666666666667 0 0 0 264.3333333333334 794.625L352.6666666666667 706.25A41.6666666666667 41.6666666666667 0 0 0 352.6666666666667 647.3333333333333zM205.4166666666666 205.375A41.6666666666667 41.6666666666667 0 0 0 205.4166666666666 264.2916666666667L293.7916666666667 352.6666666666667A41.6666666666667 41.6666666666667 0 1 0 352.7083333333333 293.75L264.375 205.375A41.6666666666667 41.6666666666667 0 0 0 205.4166666666666 205.375zM647.3333333333334 647.3333333333333A41.6666666666667 41.6666666666667 0 0 0 647.3333333333334 706.25L735.6666666666667 794.625A41.6666666666667 41.6666666666667 0 0 0 794.625 735.7083333333333L706.2499999999999 647.3333333333333A41.6666666666667 41.6666666666667 0 0 0 647.3333333333334 647.3333333333333z" />
    <glyph glyph-name="ri:palette-fill"
      unicode="&#xE010;"
      horiz-adv-x="1000" d="M500 916.6666666666666C730.0833333333333 916.6666666666666 916.6666666666666 750.9166666666667 916.6666666666666 546.2916666666667A231.5833333333333 231.5833333333333 0 0 0 685.1666666666667 314.8333333333334H603.2500000000001C564.8333333333334 314.8333333333334 533.7916666666667 283.7916666666668 533.7916666666667 245.3750000000001C533.7916666666667 227.7916666666669 540.7500000000001 211.5833333333335 551.3750000000001 199.5416666666668C562.5000000000001 187.0416666666668 569.4583333333334 170.8333333333334 569.4583333333334 152.7916666666668C569.4583333333333 114.3333333333334 537.5 83.3333333333334 500 83.3333333333334C269.9166666666667 83.3333333333334 83.3333333333333 269.9166666666669 83.3333333333333 500S269.9166666666667 916.6666666666666 500 916.6666666666666zM312.5 500A62.5 62.5 0 1 1 312.5 625A62.5 62.5 0 0 1 312.5 500zM687.5 500A62.5 62.5 0 1 1 687.5 625A62.5 62.5 0 0 1 687.5 500zM500 625A62.5 62.5 0 1 1 500 750A62.5 62.5 0 0 1 500 625z" />
    <glyph glyph-name="ri:palette-line"
      unicode="&#xE011;"
      horiz-adv-x="1000" d="M500 916.6666666666666C730.0833333333333 916.6666666666666 916.6666666666666 750.9166666666667 916.6666666666666 546.2916666666667A231.5833333333333 231.5833333333333 0 0 0 685.1666666666667 314.8333333333334H603.2500000000001C564.8333333333334 314.8333333333334 533.7916666666667 283.7916666666668 533.7916666666667 245.3750000000001C533.7916666666667 227.7916666666669 540.7500000000001 211.5833333333335 551.3750000000001 199.5416666666668C562.5000000000001 187.0416666666668 569.4583333333334 170.8333333333334 569.4583333333334 152.7916666666668C569.4583333333333 114.3333333333334 537.5 83.3333333333334 500 83.3333333333334C269.9166666666667 83.3333333333334 83.3333333333333 269.9166666666669 83.3333333333333 500S269.9166666666667 916.6666666666666 500 916.6666666666666zM450.4583333333334 245.375A152.6666666666667 152.6666666666667 0 0 0 603.2500000000001 398.1666666666667H685.1666666666667A148.25 148.25 0 0 1 833.3333333333333 546.25C833.3333333333333 702.5416666666667 686.1666666666666 833.3333333333334 500 833.3333333333334A333.3333333333333 333.3333333333333 0 0 1 471.8333333333333 167.8333333333334A152 152 0 0 0 450.4583333333334 245.3333333333334zM312.5 500A62.5 62.5 0 1 0 312.5 625A62.5 62.5 0 0 0 312.5 500zM687.5 500A62.5 62.5 0 1 0 687.5 625A62.5 62.5 0 0 0 687.5 500zM500 625A62.5 62.5 0 1 0 500 750A62.5 62.5 0 0 0 500 625z" />
    <glyph glyph-name="ri:play-fill"
      unicode="&#xE012;"
      horiz-adv-x="1000" d="M807.3333333333334 482.6666666666667L365.7083333333333 188.25A20.8333333333333 20.8333333333333 0 0 0 333.3333333333333 205.5833333333335V794.4166666666666A20.8333333333333 20.8333333333333 0 0 0 365.7083333333333 811.75L807.3333333333333 517.3333333333333A20.8333333333333 20.8333333333333 0 0 0 807.3333333333333 482.6666666666667z" />
    <glyph glyph-name="ri:share-fill"
      unicode="&#xE013;"
      horiz-adv-x="1000" d="M565.6666666666666 280.375L352.75 396.5000000000001A145.8333333333334 145.8333333333334 0 1 0 352.75 603.5L565.6666666666666 719.625A145.8333333333334 145.8333333333334 0 1 0 605.5833333333334 646.5L392.6666666666668 530.375A146.4166666666667 146.4166666666667 0 0 0 392.6666666666668 469.6250000000001L605.5833333333334 353.5A145.8333333333334 145.8333333333334 0 1 0 565.6666666666666 280.375z" />
    <glyph glyph-name="ri:time-fill"
      unicode="&#xE014;"
      horiz-adv-x="1000" d="M500 83.3333333333334C269.875 83.3333333333334 83.3333333333333 269.8750000000001 83.3333333333333 500S269.875 916.6666666666666 500 916.6666666666666S916.6666666666666 730.125 916.6666666666666 500.0000000000001S730.1249999999999 83.3333333333335 500 83.3333333333335zM541.6666666666666 500V708.3333333333334H458.3333333333333V416.6666666666668H708.3333333333333V500.0000000000001H541.6666666666666z" />
    <glyph glyph-name="ri:time-line"
      unicode="&#xE015;"
      horiz-adv-x="1000" d="M500 83.3333333333334C269.875 83.3333333333334 83.3333333333333 269.8750000000001 83.3333333333333 500S269.875 916.6666666666666 500 916.6666666666666S916.6666666666666 730.125 916.6666666666666 500.0000000000001S730.1249999999999 83.3333333333335 500 83.3333333333335zM500 166.6666666666668A333.3333333333333 333.3333333333333 0 1 1 500 833.3333333333334A333.3333333333333 333.3333333333333 0 0 1 500 166.6666666666668zM541.6666666666666 500.0000000000001H708.3333333333333V416.6666666666668H458.3333333333333V708.3333333333334H541.6666666666666V500.0000000000001z" />
  </font>
</defs>
</svg>
