<svg xmlns="http://www.w3.org/2000/svg" width="90" height="90"><path fill="#fff" d="M0 90H90V180H0z"/><path fill-rule="evenodd" fill="#EDF300" d="M20 0h50c11 0 20 9 20 20v50c0 11-9 20-20 20H20C9 90 0 81 0 70V20C0 9 9 0 20 0Z"/><path fill-rule="evenodd" fill="#293E70" d="M47.4 78.8c9.4 0 17.6-3.7 22.3-8.2V39.2h-25v13.2h10.7v10.8C54 64.3 51.4 65 49 65c-12.4 0-18.4-7.7-18.4-21 0-13.1 7.1-20.9 17-20.9A17 17 0 0 1 60 28.3L68.6 18A29.6 29.6 0 0 0 47 9.2c-18 0-33 12.8-33 35.2 0 22.7 14.6 34.4 33.3 34.4Z"/></svg>